<svg xmlns="http://www.w3.org/2000/svg" viewBox="0 0 1200 800" width="1200" height="800">
  <defs>
    <linearGradient id="ciel" x1="0" y1="0" x2="0" y2="1">
      <stop offset="0%" stop-color="#0f8156"/>
      <stop offset="100%" stop-color="#aeeaca"/>
    </linearGradient>
    <linearGradient id="sol" x1="0" y1="0" x2="0" y2="1">
      <stop offset="0%" stop-color="#0c523a" stop-opacity="0.28"/>
      <stop offset="100%" stop-color="#0c523a" stop-opacity="0.55"/>
    </linearGradient>
  </defs>

  <rect width="1200" height="800" fill="url(#ciel)"/>
  <circle cx="360" cy="170" r="72" fill="#ffffff" opacity="0.22"/>

  
    <rect x="120" y="280" width="300" height="520" rx="6" fill="#ffffff"/>
    <rect x="112" y="264" width="316" height="20" rx="5" fill="#0c523a"/>
    <rect x="142.0" y="314.0" width="26" height="34" rx="3" fill="#2b3a34" opacity="0.55"/><rect x="206.0" y="314.0" width="26" height="34" rx="3" fill="#2b3a34" opacity="0.55"/><rect x="270.0" y="314.0" width="26" height="34" rx="3" fill="#2b3a34" opacity="0.55"/><rect x="334.0" y="314.0" width="26" height="34" rx="3" fill="#c1873f" opacity="0.9"/><rect x="142.0" y="392.3" width="26" height="34" rx="3" fill="#c1873f" opacity="0.9"/><rect x="206.0" y="392.3" width="26" height="34" rx="3" fill="#2b3a34" opacity="0.55"/><rect x="270.0" y="392.3" width="26" height="34" rx="3" fill="#2b3a34" opacity="0.55"/><rect x="334.0" y="392.3" width="26" height="34" rx="3" fill="#2b3a34" opacity="0.55"/><rect x="142.0" y="470.7" width="26" height="34" rx="3" fill="#2b3a34" opacity="0.55"/><rect x="206.0" y="470.7" width="26" height="34" rx="3" fill="#c1873f" opacity="0.9"/><rect x="270.0" y="470.7" width="26" height="34" rx="3" fill="#2b3a34" opacity="0.55"/><rect x="334.0" y="470.7" width="26" height="34" rx="3" fill="#2b3a34" opacity="0.55"/><rect x="142.0" y="549.0" width="26" height="34" rx="3" fill="#2b3a34" opacity="0.55"/><rect x="206.0" y="549.0" width="26" height="34" rx="3" fill="#2b3a34" opacity="0.55"/><rect x="270.0" y="549.0" width="26" height="34" rx="3" fill="#c1873f" opacity="0.9"/><rect x="334.0" y="549.0" width="26" height="34" rx="3" fill="#2b3a34" opacity="0.55"/><rect x="142.0" y="627.3" width="26" height="34" rx="3" fill="#2b3a34" opacity="0.55"/><rect x="206.0" y="627.3" width="26" height="34" rx="3" fill="#2b3a34" opacity="0.55"/><rect x="270.0" y="627.3" width="26" height="34" rx="3" fill="#2b3a34" opacity="0.55"/><rect x="334.0" y="627.3" width="26" height="34" rx="3" fill="#c1873f" opacity="0.9"/><rect x="142.0" y="705.7" width="26" height="34" rx="3" fill="#c1873f" opacity="0.9"/><rect x="206.0" y="705.7" width="26" height="34" rx="3" fill="#2b3a34" opacity="0.55"/><rect x="270.0" y="705.7" width="26" height="34" rx="3" fill="#2b3a34" opacity="0.55"/><rect x="334.0" y="705.7" width="26" height="34" rx="3" fill="#2b3a34" opacity="0.55"/>
  
    <rect x="470" y="400" width="250" height="400" rx="6" fill="#ffffff"/>
    <rect x="462" y="384" width="266" height="20" rx="5" fill="#0c523a"/>
    <rect x="492.0" y="434.0" width="26" height="34" rx="3" fill="#2b3a34" opacity="0.55"/><rect x="543.5" y="434.0" width="26" height="34" rx="3" fill="#2b3a34" opacity="0.55"/><rect x="595.0" y="434.0" width="26" height="34" rx="3" fill="#c1873f" opacity="0.9"/><rect x="646.5" y="434.0" width="26" height="34" rx="3" fill="#2b3a34" opacity="0.55"/><rect x="492.0" y="521.5" width="26" height="34" rx="3" fill="#2b3a34" opacity="0.55"/><rect x="543.5" y="521.5" width="26" height="34" rx="3" fill="#2b3a34" opacity="0.55"/><rect x="595.0" y="521.5" width="26" height="34" rx="3" fill="#2b3a34" opacity="0.55"/><rect x="646.5" y="521.5" width="26" height="34" rx="3" fill="#c1873f" opacity="0.9"/><rect x="492.0" y="609.0" width="26" height="34" rx="3" fill="#c1873f" opacity="0.9"/><rect x="543.5" y="609.0" width="26" height="34" rx="3" fill="#2b3a34" opacity="0.55"/><rect x="595.0" y="609.0" width="26" height="34" rx="3" fill="#2b3a34" opacity="0.55"/><rect x="646.5" y="609.0" width="26" height="34" rx="3" fill="#2b3a34" opacity="0.55"/><rect x="492.0" y="696.5" width="26" height="34" rx="3" fill="#2b3a34" opacity="0.55"/><rect x="543.5" y="696.5" width="26" height="34" rx="3" fill="#c1873f" opacity="0.9"/><rect x="595.0" y="696.5" width="26" height="34" rx="3" fill="#2b3a34" opacity="0.55"/><rect x="646.5" y="696.5" width="26" height="34" rx="3" fill="#2b3a34" opacity="0.55"/>
  
    <rect x="760" y="400" width="330" height="400" rx="6" fill="#ffffff"/>
    <rect x="752" y="384" width="346" height="20" rx="5" fill="#0c523a"/>
    <rect x="782.0" y="434.0" width="26" height="34" rx="3" fill="#2b3a34" opacity="0.55"/><rect x="839.2" y="434.0" width="26" height="34" rx="3" fill="#c1873f" opacity="0.9"/><rect x="896.4" y="434.0" width="26" height="34" rx="3" fill="#2b3a34" opacity="0.55"/><rect x="953.6" y="434.0" width="26" height="34" rx="3" fill="#2b3a34" opacity="0.55"/><rect x="1010.8" y="434.0" width="26" height="34" rx="3" fill="#2b3a34" opacity="0.55"/><rect x="782.0" y="521.5" width="26" height="34" rx="3" fill="#2b3a34" opacity="0.55"/><rect x="839.2" y="521.5" width="26" height="34" rx="3" fill="#2b3a34" opacity="0.55"/><rect x="896.4" y="521.5" width="26" height="34" rx="3" fill="#c1873f" opacity="0.9"/><rect x="953.6" y="521.5" width="26" height="34" rx="3" fill="#2b3a34" opacity="0.55"/><rect x="1010.8" y="521.5" width="26" height="34" rx="3" fill="#2b3a34" opacity="0.55"/><rect x="782.0" y="609.0" width="26" height="34" rx="3" fill="#2b3a34" opacity="0.55"/><rect x="839.2" y="609.0" width="26" height="34" rx="3" fill="#2b3a34" opacity="0.55"/><rect x="896.4" y="609.0" width="26" height="34" rx="3" fill="#2b3a34" opacity="0.55"/><rect x="953.6" y="609.0" width="26" height="34" rx="3" fill="#c1873f" opacity="0.9"/><rect x="1010.8" y="609.0" width="26" height="34" rx="3" fill="#2b3a34" opacity="0.55"/><rect x="782.0" y="696.5" width="26" height="34" rx="3" fill="#c1873f" opacity="0.9"/><rect x="839.2" y="696.5" width="26" height="34" rx="3" fill="#2b3a34" opacity="0.55"/><rect x="896.4" y="696.5" width="26" height="34" rx="3" fill="#2b3a34" opacity="0.55"/><rect x="953.6" y="696.5" width="26" height="34" rx="3" fill="#2b3a34" opacity="0.55"/><rect x="1010.8" y="696.5" width="26" height="34" rx="3" fill="#c1873f" opacity="0.9"/>

  <g transform="translate(1090 800) scale(1.05)">
    <path d="M0 0 C -6 -90, 6 -150, 0 -210" stroke="#0c523a" stroke-width="14" fill="none" stroke-linecap="round"/>
    <g transform="translate(0 -210)"><path d="M0 0 Q -51.96152422706632 -40.5, -90.93266739736606 -29.999999999999996" stroke="#0c523a" stroke-width="9" fill="none" stroke-linecap="round"/><path d="M0 0 Q -12.474701449065547 -62.016642033021256, -21.830727535864707 -58.68885604402834" stroke="#0c523a" stroke-width="9" fill="none" stroke-linecap="round"/><path d="M0 0 Q 35.26711513754839 -54.405764746872634, 61.71745149070968 -48.54101966249685" stroke="#0c523a" stroke-width="9" fill="none" stroke-linecap="round"/><path d="M0 0 Q 59.6713137220964 -22.703780847044406, 104.42479901366869 -6.271707796059207" stroke="#0c523a" stroke-width="9" fill="none" stroke-linecap="round"/><path d="M0 0 Q 44.588689528643656 12.110877286148622, 78.0302066751264 40.14783638153149" stroke="#0c523a" stroke-width="9" fill="none" stroke-linecap="round"/><path d="M0 0 Q 3.67394039744206e-15 27, 6.429395695523604e-15 60" stroke="#0c523a" stroke-width="9" fill="none" stroke-linecap="round"/></g>
  </g>
  <g transform="translate(70 800) scale(0.8)">
    <path d="M0 0 C -6 -90, 6 -150, 0 -210" stroke="#0c523a" stroke-width="14" fill="none" stroke-linecap="round"/>
    <g transform="translate(0 -210)"><path d="M0 0 Q -51.96152422706632 -40.5, -90.93266739736606 -29.999999999999996" stroke="#0c523a" stroke-width="9" fill="none" stroke-linecap="round"/><path d="M0 0 Q -12.474701449065547 -62.016642033021256, -21.830727535864707 -58.68885604402834" stroke="#0c523a" stroke-width="9" fill="none" stroke-linecap="round"/><path d="M0 0 Q 35.26711513754839 -54.405764746872634, 61.71745149070968 -48.54101966249685" stroke="#0c523a" stroke-width="9" fill="none" stroke-linecap="round"/><path d="M0 0 Q 59.6713137220964 -22.703780847044406, 104.42479901366869 -6.271707796059207" stroke="#0c523a" stroke-width="9" fill="none" stroke-linecap="round"/><path d="M0 0 Q 44.588689528643656 12.110877286148622, 78.0302066751264 40.14783638153149" stroke="#0c523a" stroke-width="9" fill="none" stroke-linecap="round"/><path d="M0 0 Q 3.67394039744206e-15 27, 6.429395695523604e-15 60" stroke="#0c523a" stroke-width="9" fill="none" stroke-linecap="round"/></g>
  </g>

  <rect y="720" width="1200" height="80" fill="url(#sol)"/>
</svg>